<svg width="16" height="16" viewBox="0 0 16 16" fill="none" xmlns="http://www.w3.org/2000/svg">
<mask id="mask0_524_1020" style="mask-type:alpha" maskUnits="userSpaceOnUse" x="0" y="0" width="16" height="16">
<rect width="16" height="16" fill="#D9D9D9"/>
</mask>
<g mask="url(#mask0_524_1020)">
<path d="M8.0013 15.333L3.2013 11.733C3.03464 11.6108 2.90408 11.4552 2.80964 11.2663C2.71519 11.0775 2.66797 10.8775 2.66797 10.6663V2.66634C2.66797 2.29967 2.79852 1.98579 3.05964 1.72467C3.32075 1.46356 3.63464 1.33301 4.0013 1.33301H12.0013C12.368 1.33301 12.6819 1.46356 12.943 1.72467C13.2041 1.98579 13.3346 2.29967 13.3346 2.66634V10.6663C13.3346 10.8775 13.2874 11.0775 13.193 11.2663C13.0985 11.4552 12.968 11.6108 12.8013 11.733L8.0013 15.333ZM8.0013 13.6663L12.0013 10.6663V2.66634H4.0013V10.6663L8.0013 13.6663ZM7.3013 9.99967L11.068 6.23301L10.1346 5.26634L7.3013 8.09968L5.9013 6.69967L4.93464 7.63301L7.3013 9.99967Z" fill="#1ABA5B"/>
</g>
</svg>
